<svg width="34" height="41" viewBox="0 0 34 41" fill="none" xmlns="http://www.w3.org/2000/svg">
<path d="M9.19453 14.7636C10.6018 14.7636 11.7426 13.6228 11.7426 12.2155C11.7426 10.8083 10.6018 9.66748 9.19453 9.66748C7.78728 9.66748 6.64648 10.8083 6.64648 12.2155C6.64648 13.6228 7.78728 14.7636 9.19453 14.7636Z" fill="white"/>
<path d="M9.41718 20.746C10.8244 20.746 11.9652 19.6052 11.9652 18.1979C11.9652 16.7907 10.8244 15.6499 9.41718 15.6499C8.00994 15.6499 6.86914 16.7907 6.86914 18.1979C6.86914 19.6052 8.00994 20.746 9.41718 20.746Z" fill="white"/>
<path d="M9.41718 27.393C10.8244 27.393 11.9652 26.2522 11.9652 24.8449C11.9652 23.4377 10.8244 22.2969 9.41718 22.2969C8.00994 22.2969 6.86914 23.4377 6.86914 24.8449C6.86914 26.2522 8.00994 27.393 9.41718 27.393Z" fill="white"/>
<path d="M9.63789 34.0399C11.0451 34.0399 12.1859 32.8991 12.1859 31.4919C12.1859 30.0846 11.0451 28.9438 9.63789 28.9438C8.23064 28.9438 7.08984 30.0846 7.08984 31.4919C7.08984 32.8991 8.23064 34.0399 9.63789 34.0399Z" fill="white"/>
<path d="M15.4934 31.288C16.9006 31.288 18.0414 30.1472 18.0414 28.7399C18.0414 27.3327 16.9006 26.1919 15.4934 26.1919C14.0861 26.1919 12.9453 27.3327 12.9453 28.7399C12.9453 30.1472 14.0861 31.288 15.4934 31.288Z" fill="white"/>
<path d="M15.2297 24.3412C16.6369 24.3412 17.7777 23.2004 17.7777 21.7932C17.7777 20.3859 16.6369 19.2451 15.2297 19.2451C13.8224 19.2451 12.6816 20.3859 12.6816 21.7932C12.6816 23.2004 13.8224 24.3412 15.2297 24.3412Z" fill="white"/>
<path d="M15.4055 18.1376C16.8127 18.1376 17.9535 16.9968 17.9535 15.5895C17.9535 14.1823 16.8127 13.0415 15.4055 13.0415C13.9982 13.0415 12.8574 14.1823 12.8574 15.5895C12.8574 16.9968 13.9982 18.1376 15.4055 18.1376Z" fill="white"/>
<path d="M21.5207 21.7201C22.9279 21.7201 24.0687 20.5793 24.0687 19.1721C24.0687 17.7648 22.9279 16.624 21.5207 16.624C20.1135 16.624 18.9727 17.7648 18.9727 19.1721C18.9727 20.5793 20.1135 21.7201 21.5207 21.7201Z" fill="white"/>
<path d="M22.003 29.6269C23.6766 29.6269 25.0333 28.2319 25.0333 26.5112C25.0333 24.7904 23.6766 23.3955 22.003 23.3955C20.3294 23.3955 18.9727 24.7904 18.9727 26.5112C18.9727 28.2319 20.3294 29.6269 22.003 29.6269Z" fill="white"/>
<path d="M26.7893 32.8858C27.7592 32.8858 28.5455 32.0996 28.5455 31.1297C28.5455 30.1598 27.7592 29.3735 26.7893 29.3735C25.8195 29.3735 25.0332 30.1598 25.0332 31.1297C25.0332 32.0996 25.8195 32.8858 26.7893 32.8858Z" fill="white"/>
<path d="M31.0461 35.9623C32.4533 35.9623 33.5941 34.8215 33.5941 33.4143C33.5941 32.007 32.4533 30.8662 31.0461 30.8662C29.6388 30.8662 28.498 32.007 28.498 33.4143C28.498 34.8215 29.6388 35.9623 31.0461 35.9623Z" fill="white"/>
<path d="M32.3118 40.6875C33.2444 40.6875 34.0005 39.9314 34.0005 38.9988C34.0005 38.0661 33.2444 37.3101 32.3118 37.3101C31.3791 37.3101 30.623 38.0661 30.623 38.9988C30.623 39.9314 31.3791 40.6875 32.3118 40.6875Z" fill="white"/>
<path d="M26.1946 17.1831C27.1272 17.1831 27.8833 16.427 27.8833 15.4944C27.8833 14.5617 27.1272 13.8057 26.1946 13.8057C25.2619 13.8057 24.5059 14.5617 24.5059 15.4944C24.5059 16.427 25.2619 17.1831 26.1946 17.1831Z" fill="white"/>
<path d="M29.9954 13.4883C30.928 13.4883 31.6841 12.7322 31.6841 11.7996C31.6841 10.8669 30.928 10.1108 29.9954 10.1108C29.0627 10.1108 28.3066 10.8669 28.3066 11.7996C28.3066 12.7322 29.0627 13.4883 29.9954 13.4883Z" fill="white"/>
<path d="M21.0246 14.6771C22.462 14.6771 23.6273 13.5118 23.6273 12.0744C23.6273 10.6369 22.462 9.47168 21.0246 9.47168C19.5871 9.47168 18.4219 10.6369 18.4219 12.0744C18.4219 13.5118 19.5871 14.6771 21.0246 14.6771Z" fill="white"/>
<path d="M26.3878 12.0622C27.2427 12.0622 27.9358 11.3692 27.9358 10.5143C27.9358 9.65936 27.2427 8.96631 26.3878 8.96631C25.5329 8.96631 24.8398 9.65936 24.8398 10.5143C24.8398 11.3692 25.5329 12.0622 26.3878 12.0622Z" fill="white"/>
<path d="M14.8527 11.4685C15.7076 11.4685 16.4006 10.7754 16.4006 9.92053C16.4006 9.06561 15.7076 8.37256 14.8527 8.37256C13.9977 8.37256 13.3047 9.06561 13.3047 9.92053C13.3047 10.7754 13.9977 11.4685 14.8527 11.4685Z" fill="white"/>
<path d="M10.0455 8.37269C11.31 8.37269 12.3351 7.3476 12.3351 6.08307C12.3351 4.81855 11.31 3.79346 10.0455 3.79346C8.78096 3.79346 7.75586 4.81855 7.75586 6.08307C7.75586 7.3476 8.78096 8.37269 10.0455 8.37269Z" fill="white"/>
<path d="M4.25098 5.23633C5.69695 5.23633 6.86915 4.06414 6.86915 2.61817C6.86915 1.17219 5.69695 0 4.25098 0C2.80501 0 1.63281 1.17219 1.63281 2.61817C1.63281 4.06414 2.80501 5.23633 4.25098 5.23633Z" fill="white"/>
<path d="M5.33461 9.63309C6.18172 9.63309 6.86844 8.94637 6.86844 8.09926C6.86844 7.25215 6.18172 6.56543 5.33461 6.56543C4.4875 6.56543 3.80078 7.25215 3.80078 8.09926C3.80078 8.94637 4.4875 9.63309 5.33461 9.63309Z" fill="white"/>
<path d="M2.71515 16.6486C4.21468 16.6486 5.4303 15.4329 5.4303 13.9334C5.4303 12.4339 4.21468 11.2183 2.71515 11.2183C1.21561 11.2183 0 12.4339 0 13.9334C0 15.4329 1.21561 16.6486 2.71515 16.6486Z" fill="white"/>
</svg>
